<svg xmlns="http://www.w3.org/2000/svg" xmlns:xlink="http://www.w3.org/1999/xlink" viewBox="0 0 1024 1024"><defs><style>.cls-1{fill:url(#linear-gradient);}.cls-2{fill:#fff;}</style><linearGradient id="linear-gradient" x1="512" x2="512" y2="1024" gradientUnits="userSpaceOnUse"><stop offset="0" stop-color="#9d0000"/><stop offset="1" stop-color="#7d1a1d"/></linearGradient></defs><title>Favicon-01</title><g id="Layer_2" data-name="Layer 2"><g id="Layer_1-2" data-name="Layer 1"><rect class="cls-1" width="1024" height="1024"/><path class="cls-2" d="M1024,627.91C856.72,633,723.48,637,690.19,638.06a156.05,156.05,0,0,0,11.16-59.77,189.07,189.07,0,0,0-4.65-42.72c-4-8.45-25.69-17.37-25.69-17.37V504.81c-38-18.65-115-18.65-115-18.65V498H532.39c-9.4,0-7.39-10.57-7.39-10.57v-70c0-11.64,8.88-10,8.88-10l64.93,2.39a188.47,188.47,0,0,1,34.06,22.31c73.16-10,310.47-44,318.75-47.62s8.58-13.51,0-13.51h-1.27L593.12,407.94a187.43,187.43,0,0,0-61.37-16.84c-2.39-42.4-14.5-264.48-14.66-272.45s-2.39-12-4.62-12-5.1,4-5.1,11.94C506.25,136,496.53,349.57,494.62,391a187.51,187.51,0,0,0-61.21,16.77L74.79,371H73.51c-8.29,0-6.54,11.12,0,13.67s245.78,37.28,318.78,47.8a188.92,188.92,0,0,1,34.11-22.32l65.27-2.4s9.33-1.76,9.33,10v69.81S502.11,498,492.71,498H470V486.32S392,487,354,505v13.39s-21.82,8.93-25.64,17.37a189.11,189.11,0,0,0-4.69,42.72,161.66,161.66,0,0,0,10.72,59.77C300.21,637.15,167,633.08,0,628v59.15l401.54,29.15a169.27,169.27,0,0,0,220.91,0L1024,687.17Z"/><path class="cls-2" d="M817.22,526.16A70.17,70.17,0,0,0,685,484.09a196.43,196.43,0,0,1,24,94.36v9.88a60.31,60.31,0,0,0,38,13.55l-.6.16C779.41,602,815.63,560.59,817.22,526.16ZM717,509.52Q717,508.28,717,507a42.92,42.92,0,0,1,41.74-44.16c.22,0,.44.12.66.12h-.64c24.43-2,45.38,17.12,46.79,41.55a44.31,44.31,0,1,1-88.47,5Z"/><path class="cls-2" d="M278.59,602c13.73,0,27.41-4.83,37.41-13.55v-10a196.71,196.71,0,0,1,24.28-94.36A70.41,70.41,0,0,0,207.9,526.17C209.5,560.59,245.6,602,278.59,602Zm-58.85-92.37a44.31,44.31,0,0,1,88.47-5.1q.07,1.24.07,2.48a43,43,0,0,1-41.12,44.15l-.64.16A44.31,44.31,0,0,1,219.74,509.66Z"/></g></g></svg>